<?xml version="1.0" standalone="no"?>
<!DOCTYPE svg PUBLIC "-//W3C//DTD SVG 20010904//EN"
 "http://www.w3.org/TR/2001/REC-SVG-20010904/DTD/svg10.dtd">
<svg version="1.0" xmlns="http://www.w3.org/2000/svg"
 width="512.000000pt" height="512.000000pt" viewBox="0 0 512.000000 512.000000"
 preserveAspectRatio="xMidYMid meet">
<metadata>
Created by potrace 1.14, written by Peter Selinger 2001-2017
</metadata>
<g transform="translate(0.000000,512.000000) scale(0.100000,-0.100000)"
fill="#000000" stroke="none">
<path d="M1600 5109 c-323 -37 -658 -174 -909 -372 -386 -307 -627 -742 -680
-1229 -15 -132 -15 -1765 0 -1896 51 -469 276 -891 634 -1190 275 -231 609
-372 967 -411 132 -15 1765 -15 1896 0 469 51 891 276 1190 634 231 275 372
609 411 967 15 132 15 1765 0 1896 -51 469 -276 891 -634 1190 -275 231 -609
372 -967 411 -117 13 -1795 13 -1908 0z m500 -1298 c143 -33 300 -97 412 -167
21 -13 42 -24 47 -24 5 0 39 18 76 41 216 131 505 196 755 170 129 -14 265
-46 375 -90 382 -153 675 -504 764 -916 26 -118 31 -264 31 -887 l0 -658 -655
0 c-400 0 -693 4 -752 11 -184 20 -365 78 -517 166 l-79 45 -36 -21 c-145 -86
-288 -144 -441 -177 -119 -26 -381 -26 -500 0 -516 112 -894 490 -1006 1006
-26 119 -26 381 0 500 85 393 326 711 672 887 139 71 265 110 439 137 71 11
332 -4 415 -23z"/>
<path d="M1265 3051 c-92 -23 -182 -105 -206 -188 -10 -36 -14 -118 -14 -318
l0 -270 27 -51 c32 -60 101 -124 155 -144 51 -18 787 -27 869 -10 104 22 191
104 216 205 7 28 13 52 15 54 1 2 64 -40 140 -93 l138 -96 3 210 c1 115 1 305
0 420 l-3 211 -135 -96 c-74 -52 -137 -95 -140 -95 -3 0 -11 24 -18 53 -23
101 -109 184 -212 206 -57 12 -786 14 -835 2z m845 -153 c18 -13 43 -36 54
-51 20 -27 21 -40 21 -287 0 -247 -1 -260 -21 -287 -11 -15 -36 -38 -54 -50
-33 -23 -35 -23 -424 -23 -362 0 -394 1 -426 19 -19 10 -44 30 -55 45 -19 26
-20 42 -20 294 0 266 0 267 24 301 43 60 47 60 477 61 389 0 391 0 424 -22z
m360 -339 c0 -83 -4 -149 -8 -147 -5 2 -39 23 -75 48 l-66 45 -1 53 0 52 68
50 c37 27 70 50 75 50 4 0 7 -68 7 -151z"/>
<path d="M1665 2686 c-23 -23 -25 -32 -25 -126 0 -94 2 -103 25 -125 28 -29
42 -31 73 -9 21 14 22 23 22 133 0 124 -3 132 -47 145 -17 5 -29 1 -48 -18z"/>
<path d="M1425 2626 c-35 -35 -35 -97 0 -131 28 -29 42 -31 73 -9 18 13 22 25
22 73 0 60 -7 73 -47 85 -17 5 -29 1 -48 -18z"/>
<path d="M1905 2626 c-35 -35 -35 -97 0 -131 28 -29 42 -31 73 -9 18 13 22 25
22 73 0 60 -7 73 -47 85 -17 5 -29 1 -48 -18z"/>
</g>
</svg>
