<svg width="256" height="256" viewBox="0 0 256 256" fill="none" xmlns="http://www.w3.org/2000/svg">
<path d="M0 90C0 40.2944 40.2944 0 90 0H166C215.706 0 256 40.2944 256 90V166C256 215.706 215.706 256 166 256H90C40.2944 256 0 215.706 0 166V90Z" fill="#0284C7"/>
<g filter="url(#filter0_b_616_179)">
<path d="M100 128C100 92.6538 128.654 64 164 64V64C199.346 64 228 92.6538 228 128V192H164C128.654 192 100 163.346 100 128V128Z" fill="white" fill-opacity="0.6"/>
</g>
<path d="M27.5 128C27.5 92.6538 56.1538 64 91.5 64V64C126.846 64 155.5 92.6538 155.5 128V128C155.5 163.346 126.846 192 91.5 192V192C56.1538 192 27.5 163.346 27.5 128V128Z" fill="white"/>
<path d="M70 126.625C70 124.899 71.3991 123.5 73.125 123.5V123.5C74.8509 123.5 76.25 124.899 76.25 126.625V129.375C76.25 131.101 74.8509 132.5 73.125 132.5V132.5C71.3991 132.5 70 131.101 70 129.375V126.625Z" fill="#0284C7" fill-opacity="0.6"/>
<path d="M82 123.625C82 121.899 83.3991 120.5 85.125 120.5V120.5C86.8509 120.5 88.25 121.899 88.25 123.625V132.375C88.25 134.101 86.8509 135.5 85.125 135.5V135.5C83.3991 135.5 82 134.101 82 132.375V123.625Z" fill="#0284C7" fill-opacity="0.6"/>
<path d="M94 126.625C94 124.899 95.3991 123.5 97.125 123.5V123.5C98.8509 123.5 100.25 124.899 100.25 126.625V129.375C100.25 131.101 98.8509 132.5 97.125 132.5V132.5C95.3991 132.5 94 131.101 94 129.375V126.625Z" fill="#0284C7" fill-opacity="0.6"/>
<path fill-rule="evenodd" clip-rule="evenodd" d="M66.2857 110.143H102C105.941 110.143 109.143 113.345 109.143 117.286V138.714C109.143 142.663 105.941 145.857 102 145.857H66.2857C62.3371 145.857 59.1429 142.663 59.1429 138.714V117.286C59.1429 113.345 62.3371 110.143 66.2857 110.143ZM116.27 139.369C115.932 146.958 109.674 153 102 153H66.2857C58.3962 153 52 146.604 52 138.714V117.286C52 109.396 58.3962 103 66.2857 103H102C109.674 103 115.932 109.05 116.27 116.639L130.571 106.571V149.429L116.27 139.369ZM116.286 130.64L123.429 135.674V120.341L116.286 125.36V130.64Z" fill="#0284C7" fill-opacity="0.6"/>
<defs>
<filter id="filter0_b_616_179" x="84" y="48" width="160" height="160" filterUnits="userSpaceOnUse" color-interpolation-filters="sRGB">
<feFlood flood-opacity="0" result="BackgroundImageFix"/>
<feGaussianBlur in="BackgroundImageFix" stdDeviation="8"/>
<feComposite in2="SourceAlpha" operator="in" result="effect1_backgroundBlur_616_179"/>
<feBlend mode="normal" in="SourceGraphic" in2="effect1_backgroundBlur_616_179" result="shape"/>
</filter>
</defs>
</svg>
